<?xml version="1.0" encoding="UTF-8"?>
<svg width="180px" height="126px" viewBox="0 0 180 126" version="1.1" xmlns="http://www.w3.org/2000/svg" xmlns:xlink="http://www.w3.org/1999/xlink">
    <title>步骤1</title>
    <defs>
        <rect id="path-1" x="39.9818825" y="53.8676867" width="100.955369" height="65" rx="8"></rect>
        <mask id="mask-2" maskContentUnits="userSpaceOnUse" maskUnits="objectBoundingBox" x="0" y="0" width="100.955369" height="65" fill="white">
            <use xlink:href="#path-1"></use>
        </mask>
        <linearGradient x1="93.9391482%" y1="46.8729456%" x2="46.2805922%" y2="48.1435141%" id="linearGradient-3">
            <stop stop-color="#FFF6F6" offset="0%"></stop>
            <stop stop-color="#000000" offset="100%"></stop>
        </linearGradient>
    </defs>
    <g id="产品页" stroke="none" stroke-width="1" fill="none" fill-rule="evenodd">
        <g id="AnyRec-AI-Image-Upscaler-" transform="translate(-413.000000, -965.000000)">
            <g id="步骤1" transform="translate(413.000000, 965.000000)">
                <rect id="矩形" x="0" y="0" width="180" height="126"></rect>
                <use id="矩形" stroke="#FF5F58" mask="url(#mask-2)" stroke-width="4" fill="#FFE8E8" stroke-dasharray="4" xlink:href="#path-1"></use>
                <g id="编组-18" transform="translate(70.804292, 41.588527) scale(-1, 1) rotate(4.000000) translate(-70.804292, -41.588527) translate(45.158254, 23.309368)" stroke-linecap="round" stroke-linejoin="round" stroke-width="2">
                    <path d="M51.1761325,11.5211543 C31.3474737,10.894903 24.5044713,13.7055998 30.6471254,19.9532445 C39.8611064,29.3247115 40.8906648,11.8920779 26.6501373,10.9547792 C17.1564524,10.3299133 8.31172113,14.5662471 0.11594365,23.6637807" id="路径-48" stroke="url(#linearGradient-3)" transform="translate(25.646038, 17.279159) rotate(-27.000000) translate(-25.646038, -17.279159) "></path>
                    <polyline id="路径-49" stroke="#000000" points="2.79844043 29.558319 4.79755665 36.558319 11.7944634 32.558319"></polyline>
                </g>
                <g id="编组-145" transform="translate(24.930181, 31.867687) rotate(20.000000) translate(-24.930181, -31.867687) translate(8.937251, 10.867687)">
                    <path d="M4.8,0 L20.1392449,0 L20.1392449,0 L31.9858595,10.9565217 L31.9858595,37.2 C31.9858595,39.8509668 29.8368263,42 27.1858595,42 L4.8,42 C2.1490332,42 1.21282822e-15,39.8509668 0,37.2 L0,4.8 C-3.24649801e-16,2.1490332 2.1490332,1.37515312e-15 4.8,0 Z" id="矩形" fill="#FF5F58"></path>
                    <path d="M20.1392449,0 L31.9858595,10.9565217 L23.7392449,10.9565217 C21.7510198,10.9565217 20.1392449,9.34474684 20.1392449,7.35652174 L20.1392449,0 L20.1392449,0 Z" id="矩形" fill="#FFFFFF" opacity="0.400000006"></path>
                    <g id="编组-15" transform="translate(5.062749, 18.132313)">
                        <rect id="形状结合" fill="#FFFFFF" x="0" y="-3.63797881e-12" width="22" height="19" rx="1.8"></rect>
                        <path d="M2.95857331,17 L19.5204685,17 C20.0727533,17 20.5204685,16.5522847 20.5204685,16 L20.5204685,5.93715892 C20.5204685,5.38487417 20.0727533,4.93715892 19.5204685,4.93715892 C19.2850496,4.93715892 19.0571783,5.02021605 18.8769762,5.17170632 L10.821352,11.9438201 C10.3986042,12.2992111 9.76779807,12.2446076 9.41240709,11.8218598 C9.41200255,11.8213786 9.41159846,11.820897 9.41119483,11.820415 L7.73527834,9.81921374 C7.3806853,9.39579643 6.74998329,9.34000333 6.32656598,9.69459638 C6.263369,9.74752102 6.20695834,9.80805658 6.15861782,9.87482536 L2.14857766,15.4135641 C1.82469807,15.8609124 1.92478919,16.4861161 2.37213744,16.8099957 C2.54273039,16.9335047 2.7479636,17 2.95857331,17 Z" id="路径-19" fill="#FF5F58"></path>
                        <circle id="椭圆形" fill="#FF5F58" cx="3.88040942" cy="3.79007326" r="1.79007326"></circle>
                    </g>
                </g>
                <rect id="矩形" fill="#FF5F58" x="76.9655325" y="84.8676867" width="26.9880689" height="3" rx="1.5"></rect>
                <path d="M78.4589041,84.8683495 L102.46023,84.8683495 C103.288291,84.8683495 103.959567,85.5396256 103.959567,86.3676867 C103.959567,87.1957477 103.288291,87.8670238 102.46023,87.8670238 L78.4589041,87.8670238 C77.6308431,87.8670238 76.9595669,87.1957477 76.9595669,86.3676867 C76.9595669,85.5396256 77.6308431,84.8683495 78.4589041,84.8683495 Z" id="矩形" fill="#FF5F58" transform="translate(90.459567, 86.367687) rotate(90.000000) translate(-90.459567, -86.367687) "></path>
            </g>
        </g>
    </g>
</svg>