<?xml version="1.0" encoding="UTF-8"?>
<svg width="180px" height="126px" viewBox="0 0 180 126" version="1.1" xmlns="http://www.w3.org/2000/svg" xmlns:xlink="http://www.w3.org/1999/xlink">
    <title>步骤3</title>
    <g id="产品页" stroke="none" stroke-width="1" fill="none" fill-rule="evenodd">
        <g id="AnyRec-AI-Image-Upscaler-" transform="translate(-1329.000000, -965.000000)">
            <g id="步骤3" transform="translate(1329.000000, 965.000000)">
                <rect id="矩形" x="0" y="0" width="180" height="126"></rect>
                <g id="编组-148" transform="translate(33.575342, 29.000000)">
                    <path d="M8,0 L42.9809987,0 L42.9809987,0 L66.9703933,19 L66.9703933,73.8676867 C66.9703933,78.2859647 63.3886713,81.8676867 58.9703933,81.8676867 L8,81.8676867 C3.581722,81.8676867 5.41083001e-16,78.2859647 0,73.8676867 L0,8 C-2.31743984e-15,3.581722 3.581722,-7.65539184e-17 8,0 Z" id="矩形备份-96" fill="#FF5F58"></path>
                    <path d="M42.9809987,0 L66.9703933,19 L48.9809987,19 C45.6672902,19 42.9809987,16.3137085 42.9809987,13 L42.9809987,0 L42.9809987,0 Z" id="矩形备份-97" fill="#FFFFFF" opacity="0.400000006"></path>
                    <rect id="形状结合" fill="#FFFFFF" x="9.42465753" y="30" width="49" height="44" rx="5"></rect>
                    <rect id="形状结合" fill="#FFFFFF" x="12.4246575" y="34" width="44" height="38" rx="1.8"></rect>
                    <path d="M16.3832308,68.5 L52.4655946,68.5 C53.0178793,68.5 53.4655946,68.0522847 53.4655946,67.5 L53.4655946,44.2272322 C53.4655946,43.6749474 53.0178793,43.2272322 52.4655946,43.2272322 C52.2301756,43.2272322 52.0023043,43.3102893 51.8221023,43.4617796 L33.3004639,59.0323473 C32.8777161,59.3877383 32.24691,59.3331348 31.891519,58.910387 C31.8911145,58.9099058 31.8907104,58.9094242 31.8903067,58.9089422 L27.0711974,53.1544742 C26.7166044,52.7310569 26.0859024,52.6752638 25.6624851,53.0298569 C25.5992881,53.0827815 25.5428774,53.1433171 25.4945369,53.2100858 L15.5732352,66.9135641 C15.2493556,67.3609124 15.3494467,67.9861161 15.796795,68.3099957 C15.9673879,68.4335047 16.1726211,68.5 16.3832308,68.5 Z" id="路径-19" fill="#FF5F58"></path>
                    <circle id="椭圆形" fill="#FF5F58" cx="20.1854764" cy="42.0801465" r="3.58014652"></circle>
                </g>
                <path d="M97.5470614,82.8670534 C102.515256,82.8670534 107.013093,84.881717 110.268894,88.1389272 C113.524851,91.396294 115.538665,95.8963147 115.538665,100.866879 C115.538665,105.779497 113.571543,110.232488 110.382255,113.480407 C107.189226,116.732136 102.771197,118.776099 97.8757968,118.863763 L97.8757968,118.863763 L81.5184817,118.866389 L85.1324143,113.894937 C81.6963658,110.616765 79.5554574,105.991933 79.5554574,100.866879 C79.5554574,95.8963147 81.5692718,91.396294 84.8252292,88.1389272 C88.08103,84.881717 92.5788666,82.8670534 97.5470614,82.8670534 Z" id="形状结合" stroke="#FFF6F6" stroke-width="2" fill="#1E1E1E"></path>
                <g id="04转换" transform="translate(81.554132, 84.867026)" fill="#000000" fill-rule="nonzero" opacity="0">
                    <rect id="矩形" x="0" y="0" width="31.9858595" height="31.9997058"></rect>
                </g>
                <polygon id="星形" fill="#FF5F58" transform="translate(110.006020, 25.867568) rotate(-45.000000) translate(-110.006020, -25.867568) " points="110.0051 30.1166098 103.995667 31.8779207 105.756978 25.8684878 103.998268 19.8598167 110.006939 21.6185269 116.016372 19.857216 114.255061 25.8666489 116.013771 31.8753201"></polygon>
                <polygon id="星形备份-5" fill="#FF5F58" transform="translate(123.050505, 48.867357) rotate(-45.000000) translate(-123.050505, -48.867357) " points="123.049964 51.366793 119.515004 52.4028583 120.551069 48.8678977 119.516534 45.3333853 123.051046 46.3679207 126.586007 45.3318555 125.549941 48.866816 126.584477 52.4013285"></polygon>
                <g id="编组-16" transform="translate(100.000000, 93.000000)" stroke="#FFFFFF" stroke-linecap="round" stroke-linejoin="round" stroke-width="2">
                    <polyline id="路径-56" points="0 0 5 0 5 5"></polyline>
                    <line x1="0" y1="5" x2="5" y2="0" id="路径-57"></line>
                </g>
                <g id="编组-16" transform="translate(92.500000, 105.500000) scale(-1, -1) translate(-92.500000, -105.500000) translate(90.000000, 103.000000)" stroke="#FFFFFF" stroke-linecap="round" stroke-linejoin="round" stroke-width="2">
                    <polyline id="路径-56" points="0 0 5 0 5 5"></polyline>
                    <line x1="0" y1="5" x2="5" y2="0" id="路径-57"></line>
                </g>
            </g>
        </g>
    </g>
</svg>