<?xml version="1.0" encoding="UTF-8"?>
<svg width="180px" height="126px" viewBox="0 0 180 126" version="1.1" xmlns="http://www.w3.org/2000/svg" xmlns:xlink="http://www.w3.org/1999/xlink">
    <title>步骤2</title>
    <g id="产品页" stroke="none" stroke-width="1" fill="none" fill-rule="evenodd">
        <g id="AnyRec-AI-Image-Upscaler-" transform="translate(-862.000000, -965.000000)">
            <g id="步骤2" transform="translate(862.000000, 965.000000)">
                <rect id="矩形" x="0" y="0" width="180" height="126"></rect>
                <g id="编组-146" opacity="0.400000006" transform="translate(25.791869, 92.867687)">
                    <rect id="矩形备份-98" fill="#FF5F58" x="0" y="0" width="102.954485" height="26" rx="6"></rect>
                    <path d="M22.0841308,18.1323133 L22.0841308,16.6063133 L16.5541308,16.6063133 L16.5541308,13.9043133 L21.2861308,13.9043133 L21.2861308,12.4063133 L16.5541308,12.4063133 L16.5541308,9.85831333 L21.8881308,9.85831333 L21.8881308,8.33231333 L14.7341308,8.33231333 L14.7341308,18.1323133 L22.0841308,18.1323133 Z M25.6961308,18.1323133 L25.6961308,14.3523133 C25.6961308,12.8543133 26.5361308,12.0983133 27.7821308,12.0983133 C28.9021308,12.0983133 29.5601308,12.7423133 29.5601308,14.0723133 L29.5601308,18.1323133 L31.3101308,18.1323133 L31.3101308,13.8483133 C31.3101308,11.5943133 29.9801308,10.5723133 28.1881308,10.5723133 C27.0961308,10.5723133 26.1861308,10.9363133 25.6121308,11.6223133 L25.6121308,10.6563133 L23.9461308,10.6563133 L23.9461308,18.1323133 L25.6961308,18.1323133 Z M35.2861308,18.1323133 L35.2861308,7.74431333 L33.5361308,7.74431333 L33.5361308,18.1323133 L35.2861308,18.1323133 Z M39.8361308,18.2303133 C40.9561308,18.2303133 41.7681308,17.8663133 42.1881308,17.2223133 L42.1881308,18.1323133 L43.8401308,18.1323133 L43.8401308,13.7503133 C43.8401308,11.5943133 42.5941308,10.5723133 40.4381308,10.5723133 C39.2341308,10.5723133 38.0721308,10.8803133 37.2741308,11.4963133 L37.9601308,12.7703133 C38.5201308,12.3083133 39.3881308,12.0283133 40.2281308,12.0283133 C41.4741308,12.0283133 42.0901308,12.6303133 42.0901308,13.6523133 L42.0901308,13.7643133 L40.1581308,13.7643133 C37.8901308,13.7643133 37.0501308,14.7443133 37.0501308,15.9903133 C37.0501308,17.2923133 38.1281308,18.2303133 39.8361308,18.2303133 Z M40.2001308,16.9563133 C39.3041308,16.9563133 38.7721308,16.5503133 38.7721308,15.9203133 C38.7721308,15.3743133 39.0941308,14.9263133 40.2841308,14.9263133 L42.0901308,14.9263133 L42.0901308,15.7943133 C41.7961308,16.5643133 41.0541308,16.9563133 40.2001308,16.9563133 Z M47.8301308,18.1323133 L47.8301308,14.5063133 C47.8301308,12.9803133 48.6701308,12.1963133 50.0001308,12.1963133 C50.1261308,12.1963133 50.2521308,12.2103133 50.4061308,12.2383133 L50.4061308,10.5723133 C49.1601308,10.5723133 48.2501308,10.9643133 47.7461308,11.7483133 L47.7461308,10.6563133 L46.0801308,10.6563133 L46.0801308,18.1323133 L47.8301308,18.1323133 Z M55.2081308,20.9463133 C57.8261308,20.9463133 59.2401308,19.7143133 59.2401308,16.9983133 L59.2401308,10.6563133 L57.5741308,10.6563133 L57.5741308,11.6503133 C56.9581308,10.9083133 56.0341308,10.5723133 54.9841308,10.5723133 C52.8421308,10.5723133 51.2041308,12.0003133 51.2041308,14.1703133 C51.2041308,16.3403133 52.8421308,17.7963133 54.9841308,17.7963133 C55.9921308,17.7963133 56.8741308,17.4743133 57.4901308,16.8023133 L57.4901308,17.1943133 C57.4901308,18.7063133 56.7621308,19.4623133 55.1101308,19.4623133 C54.0741308,19.4623133 53.0101308,19.1123133 52.3521308,18.5663133 L51.5681308,19.8823133 C52.4221308,20.5823133 53.8081308,20.9463133 55.2081308,20.9463133 Z M55.2501308,16.3123133 C53.9201308,16.3123133 52.9681308,15.4443133 52.9681308,14.1703133 C52.9681308,12.9103133 53.9201308,12.0563133 55.2501308,12.0563133 C56.5661308,12.0563133 57.5181308,12.9103133 57.5181308,14.1703133 C57.5181308,15.4443133 56.5661308,16.3123133 55.2501308,16.3123133 Z M65.0501308,18.2303133 C66.3381308,18.2303133 67.3881308,17.8103133 68.0601308,17.0123133 L67.1221308,15.9343133 C66.5901308,16.4803133 65.9321308,16.7463133 65.0921308,16.7463133 C63.7901308,16.7463133 62.8801308,16.0463133 62.6701308,14.9543133 L68.5361308,14.9543133 C68.5501308,14.7863133 68.5641308,14.5763133 68.5641308,14.4363133 C68.5641308,12.0983133 66.9681308,10.5723133 64.7841308,10.5723133 C62.5581308,10.5723133 60.9201308,12.1683133 60.9201308,14.3943133 C60.9201308,16.6203133 62.5441308,18.2303133 65.0501308,18.2303133 Z M66.8981308,13.7923133 L62.6561308,13.7923133 C62.8241308,12.7003133 63.6501308,11.9723133 64.7841308,11.9723133 C65.9321308,11.9723133 66.7581308,12.7143133 66.8981308,13.7923133 Z M77.5101308,18.2723133 C79.9461308,18.2723133 81.5281308,17.1383133 81.5281308,15.3183133 C81.5281308,14.2403133 80.9541308,13.4423133 79.9321308,12.9803133 C80.7301308,12.5463133 81.1781308,11.8463133 81.1781308,10.9223133 C81.1781308,9.24231333 79.6941308,8.19231333 77.5101308,8.19231333 C75.3401308,8.19231333 73.8701308,9.24231333 73.8701308,10.9223133 C73.8701308,11.8463133 74.3041308,12.5463133 75.0881308,12.9803133 C74.0801308,13.4423133 73.5201308,14.2403133 73.5201308,15.3183133 C73.5201308,17.1383133 75.0741308,18.2723133 77.5101308,18.2723133 Z M77.5101308,12.3783133 C76.3621308,12.3783133 75.6621308,11.8463133 75.6621308,11.0063133 C75.6621308,10.1243133 76.3901308,9.62031333 77.5101308,9.62031333 C78.6301308,9.62031333 79.3861308,10.1243133 79.3861308,11.0063133 C79.3861308,11.8463133 78.6721308,12.3783133 77.5101308,12.3783133 Z M77.5101308,16.8443133 C76.1661308,16.8443133 75.3541308,16.2563133 75.3541308,15.2623133 C75.3541308,14.2963133 76.1661308,13.6943133 77.5101308,13.6943133 C78.8541308,13.6943133 79.6941308,14.2963133 79.6941308,15.2623133 C79.6941308,16.2563133 78.8541308,16.8443133 77.5101308,16.8443133 Z M84.0341308,18.1323133 L85.9661308,15.5423133 L87.8841308,18.1323133 L89.8581308,18.1323133 L86.9321308,14.3103133 L89.7321308,10.6563133 L87.8421308,10.6563133 L86.0081308,13.1063133 L84.1741308,10.6563133 L82.2281308,10.6563133 L85.0141308,14.3383133 L82.1021308,18.1323133 L84.0341308,18.1323133 Z" id="Enlarge8x" fill="#FFFFFF" fill-rule="nonzero"></path>
                </g>
                <g id="编组-146备份" opacity="0.400000006" transform="translate(38.786125, 24.867578)">
                    <rect id="矩形备份-98" fill="#FF5F58" x="0" y="0" width="102.954485" height="25.9997609" rx="6"></rect>
                    <path d="M22.5588754,17.1324224 L22.5588754,15.6064224 L17.0288754,15.6064224 L17.0288754,12.9044224 L21.7608754,12.9044224 L21.7608754,11.4064224 L17.0288754,11.4064224 L17.0288754,8.85842244 L22.3628754,8.85842244 L22.3628754,7.33242244 L15.2088754,7.33242244 L15.2088754,17.1324224 L22.5588754,17.1324224 Z M26.1708754,17.1324224 L26.1708754,13.3524224 C26.1708754,11.8544224 27.0108754,11.0984224 28.2568754,11.0984224 C29.3768754,11.0984224 30.0348754,11.7424224 30.0348754,13.0724224 L30.0348754,17.1324224 L31.7848754,17.1324224 L31.7848754,12.8484224 C31.7848754,10.5944224 30.4548754,9.57242244 28.6628754,9.57242244 C27.5708754,9.57242244 26.6608754,9.93642244 26.0868754,10.6224224 L26.0868754,9.65642244 L24.4208754,9.65642244 L24.4208754,17.1324224 L26.1708754,17.1324224 Z M35.7608754,17.1324224 L35.7608754,6.74442244 L34.0108754,6.74442244 L34.0108754,17.1324224 L35.7608754,17.1324224 Z M40.3108754,17.2304224 C41.4308754,17.2304224 42.2428754,16.8664224 42.6628754,16.2224224 L42.6628754,17.1324224 L44.3148754,17.1324224 L44.3148754,12.7504224 C44.3148754,10.5944224 43.0688754,9.57242244 40.9128754,9.57242244 C39.7088754,9.57242244 38.5468754,9.88042244 37.7488754,10.4964224 L38.4348754,11.7704224 C38.9948754,11.3084224 39.8628754,11.0284224 40.7028754,11.0284224 C41.9488754,11.0284224 42.5648754,11.6304224 42.5648754,12.6524224 L42.5648754,12.7644224 L40.6328754,12.7644224 C38.3648754,12.7644224 37.5248754,13.7444224 37.5248754,14.9904224 C37.5248754,16.2924224 38.6028754,17.2304224 40.3108754,17.2304224 Z M40.6748754,15.9564224 C39.7788754,15.9564224 39.2468754,15.5504224 39.2468754,14.9204224 C39.2468754,14.3744224 39.5688754,13.9264224 40.7588754,13.9264224 L42.5648754,13.9264224 L42.5648754,14.7944224 C42.2708754,15.5644224 41.5288754,15.9564224 40.6748754,15.9564224 Z M48.3048754,17.1324224 L48.3048754,13.5064224 C48.3048754,11.9804224 49.1448754,11.1964224 50.4748754,11.1964224 C50.6008754,11.1964224 50.7268754,11.2104224 50.8808754,11.2384224 L50.8808754,9.57242244 C49.6348754,9.57242244 48.7248754,9.96442244 48.2208754,10.7484224 L48.2208754,9.65642244 L46.5548754,9.65642244 L46.5548754,17.1324224 L48.3048754,17.1324224 Z M55.6828754,19.9464224 C58.3008754,19.9464224 59.7148754,18.7144224 59.7148754,15.9984224 L59.7148754,9.65642244 L58.0488754,9.65642244 L58.0488754,10.6504224 C57.4328754,9.90842244 56.5088754,9.57242244 55.4588754,9.57242244 C53.3168754,9.57242244 51.6788754,11.0004224 51.6788754,13.1704224 C51.6788754,15.3404224 53.3168754,16.7964224 55.4588754,16.7964224 C56.4668754,16.7964224 57.3488754,16.4744224 57.9648754,15.8024224 L57.9648754,16.1944224 C57.9648754,17.7064224 57.2368754,18.4624224 55.5848754,18.4624224 C54.5488754,18.4624224 53.4848754,18.1124224 52.8268754,17.5664224 L52.0428754,18.8824224 C52.8968754,19.5824224 54.2828754,19.9464224 55.6828754,19.9464224 Z M55.7248754,15.3124224 C54.3948754,15.3124224 53.4428754,14.4444224 53.4428754,13.1704224 C53.4428754,11.9104224 54.3948754,11.0564224 55.7248754,11.0564224 C57.0408754,11.0564224 57.9928754,11.9104224 57.9928754,13.1704224 C57.9928754,14.4444224 57.0408754,15.3124224 55.7248754,15.3124224 Z M65.5248754,17.2304224 C66.8128754,17.2304224 67.8628754,16.8104224 68.5348754,16.0124224 L67.5968754,14.9344224 C67.0648754,15.4804224 66.4068754,15.7464224 65.5668754,15.7464224 C64.2648754,15.7464224 63.3548754,15.0464224 63.1448754,13.9544224 L69.0108754,13.9544224 C69.0248754,13.7864224 69.0388754,13.5764224 69.0388754,13.4364224 C69.0388754,11.0984224 67.4428754,9.57242244 65.2588754,9.57242244 C63.0328754,9.57242244 61.3948754,11.1684224 61.3948754,13.3944224 C61.3948754,15.6204224 63.0188754,17.2304224 65.5248754,17.2304224 Z M67.3728754,12.7924224 L63.1308754,12.7924224 C63.2988754,11.7004224 64.1248754,10.9724224 65.2588754,10.9724224 C66.4068754,10.9724224 67.2328754,11.7144224 67.3728754,12.7924224 Z M81.1488754,17.1324224 L81.1488754,15.5924224 L76.5288754,15.5924224 L79.1468754,13.1004224 C80.5048754,11.8264224 80.7708754,10.9584224 80.7708754,10.0064224 C80.7708754,8.27042244 79.3988754,7.19242244 77.2708754,7.19242244 C75.6608754,7.19242244 74.3028754,7.79442244 73.5468754,8.81642244 L74.8208754,9.79642244 C75.3668754,9.09642244 76.1648754,8.77442244 77.1168754,8.77442244 C78.3208754,8.77442244 78.9368754,9.29242244 78.9368754,10.1884224 C78.9368754,10.7344224 78.7688754,11.3084224 77.8168754,12.2184224 L73.9248754,15.9144224 L73.9248754,17.1324224 L81.1488754,17.1324224 Z M83.5708754,17.1324224 L85.5028754,14.5424224 L87.4208754,17.1324224 L89.3948754,17.1324224 L86.4688754,13.3104224 L89.2688754,9.65642244 L87.3788754,9.65642244 L85.5448754,12.1064224 L83.7108754,9.65642244 L81.7648754,9.65642244 L84.5508754,13.3384224 L81.6388754,17.1324224 L83.5708754,17.1324224 Z" id="Enlarge2x" fill="#FFFFFF" fill-rule="nonzero"></path>
                </g>
                <g id="编组-147" transform="translate(57.777729, 49.867348)">
                    <rect id="矩形备份-99" fill="#FF5F58" x="0" y="6.99993563" width="102.954485" height="29.9997241" rx="6"></rect>
                    <path d="M18.9582713,26.1326523 L18.9582713,24.6066523 L13.4282713,24.6066523 L13.4282713,21.9046523 L18.1602713,21.9046523 L18.1602713,20.4066523 L13.4282713,20.4066523 L13.4282713,17.8586523 L18.7622713,17.8586523 L18.7622713,16.3326523 L11.6082713,16.3326523 L11.6082713,26.1326523 L18.9582713,26.1326523 Z M22.5702713,26.1326523 L22.5702713,22.3526523 C22.5702713,20.8546523 23.4102713,20.0986523 24.6562713,20.0986523 C25.7762713,20.0986523 26.4342713,20.7426523 26.4342713,22.0726523 L26.4342713,26.1326523 L28.1842713,26.1326523 L28.1842713,21.8486523 C28.1842713,19.5946523 26.8542713,18.5726523 25.0622713,18.5726523 C23.9702713,18.5726523 23.0602713,18.9366523 22.4862713,19.6226523 L22.4862713,18.6566523 L20.8202713,18.6566523 L20.8202713,26.1326523 L22.5702713,26.1326523 Z M32.1602713,26.1326523 L32.1602713,15.7446523 L30.4102713,15.7446523 L30.4102713,26.1326523 L32.1602713,26.1326523 Z M36.7102713,26.2306523 C37.8302713,26.2306523 38.6422713,25.8666523 39.0622713,25.2226523 L39.0622713,26.1326523 L40.7142713,26.1326523 L40.7142713,21.7506523 C40.7142713,19.5946523 39.4682713,18.5726523 37.3122713,18.5726523 C36.1082713,18.5726523 34.9462713,18.8806523 34.1482713,19.4966523 L34.8342713,20.7706523 C35.3942713,20.3086523 36.2622713,20.0286523 37.1022713,20.0286523 C38.3482713,20.0286523 38.9642713,20.6306523 38.9642713,21.6526523 L38.9642713,21.7646523 L37.0322713,21.7646523 C34.7642713,21.7646523 33.9242713,22.7446523 33.9242713,23.9906523 C33.9242713,25.2926523 35.0022713,26.2306523 36.7102713,26.2306523 Z M37.0742713,24.9566523 C36.1782713,24.9566523 35.6462713,24.5506523 35.6462713,23.9206523 C35.6462713,23.3746523 35.9682713,22.9266523 37.1582713,22.9266523 L38.9642713,22.9266523 L38.9642713,23.7946523 C38.6702713,24.5646523 37.9282713,24.9566523 37.0742713,24.9566523 Z M44.7042713,26.1326523 L44.7042713,22.5066523 C44.7042713,20.9806523 45.5442713,20.1966523 46.8742713,20.1966523 C47.0002713,20.1966523 47.1262713,20.2106523 47.2802713,20.2386523 L47.2802713,18.5726523 C46.0342713,18.5726523 45.1242713,18.9646523 44.6202713,19.7486523 L44.6202713,18.6566523 L42.9542713,18.6566523 L42.9542713,26.1326523 L44.7042713,26.1326523 Z M52.0822713,28.9466523 C54.7002713,28.9466523 56.1142713,27.7146523 56.1142713,24.9986523 L56.1142713,18.6566523 L54.4482713,18.6566523 L54.4482713,19.6506523 C53.8322713,18.9086523 52.9082713,18.5726523 51.8582713,18.5726523 C49.7162713,18.5726523 48.0782713,20.0006523 48.0782713,22.1706523 C48.0782713,24.3406523 49.7162713,25.7966523 51.8582713,25.7966523 C52.8662713,25.7966523 53.7482713,25.4746523 54.3642713,24.8026523 L54.3642713,25.1946523 C54.3642713,26.7066523 53.6362713,27.4626523 51.9842713,27.4626523 C50.9482713,27.4626523 49.8842713,27.1126523 49.2262713,26.5666523 L48.4422713,27.8826523 C49.2962713,28.5826523 50.6822713,28.9466523 52.0822713,28.9466523 Z M52.1242713,24.3126523 C50.7942713,24.3126523 49.8422713,23.4446523 49.8422713,22.1706523 C49.8422713,20.9106523 50.7942713,20.0566523 52.1242713,20.0566523 C53.4402713,20.0566523 54.3922713,20.9106523 54.3922713,22.1706523 C54.3922713,23.4446523 53.4402713,24.3126523 52.1242713,24.3126523 Z M61.9242713,26.2306523 C63.2122713,26.2306523 64.2622713,25.8106523 64.9342713,25.0126523 L63.9962713,23.9346523 C63.4642713,24.4806523 62.8062713,24.7466523 61.9662713,24.7466523 C60.6642713,24.7466523 59.7542713,24.0466523 59.5442713,22.9546523 L65.4102713,22.9546523 C65.4242713,22.7866523 65.4382713,22.5766523 65.4382713,22.4366523 C65.4382713,20.0986523 63.8422713,18.5726523 61.6582713,18.5726523 C59.4322713,18.5726523 57.7942713,20.1686523 57.7942713,22.3946523 C57.7942713,24.6206523 59.4182713,26.2306523 61.9242713,26.2306523 Z M63.7722713,21.7926523 L59.5302713,21.7926523 C59.6982713,20.7006523 60.5242713,19.9726523 61.6582713,19.9726523 C62.8062713,19.9726523 63.6322713,20.7146523 63.7722713,21.7926523 Z M77.4502713,26.1326523 L77.4502713,23.9066523 L79.1862713,23.9066523 L79.1862713,22.3666523 L77.4502713,22.3666523 L77.4502713,20.3926523 L75.7422713,20.3926523 L75.7422713,22.3666523 L72.5362713,22.3666523 L77.0862713,16.3326523 L75.1402713,16.3326523 L70.3102713,22.6466523 L70.3102713,23.9066523 L75.6862713,23.9066523 L75.6862713,26.1326523 L77.4502713,26.1326523 Z M81.1882713,26.1326523 L83.1202713,23.5426523 L85.0382713,26.1326523 L87.0122713,26.1326523 L84.0862713,22.3106523 L86.8862713,18.6566523 L84.9962713,18.6566523 L83.1622713,21.1066523 L81.3282713,18.6566523 L79.3822713,18.6566523 L82.1682713,22.3386523 L79.2562713,26.1326523 L81.1882713,26.1326523 Z" id="Enlarge4x" fill="#FFFFFF" fill-rule="nonzero"></path>
                    <ellipse id="椭圆形" stroke="#FFF6F6" stroke-width="2" fill="#1E1E1E" cx="100.955369" cy="8.99991724" rx="9.99602298" ry="9.99991724"></ellipse>
                    <polyline id="路径-50" stroke="#FFFFFF" stroke-width="2" stroke-linecap="round" stroke-linejoin="round" points="96.9571365 9.99990805 99.9558109 12.9998805 104.953601 6.99993563"></polyline>
                </g>
            </g>
        </g>
    </g>
</svg>