<?xml version="1.0" encoding="UTF-8"?>
<svg width="16px" height="16px" viewBox="0 0 16 16" version="1.1" xmlns="http://www.w3.org/2000/svg" xmlns:xlink="http://www.w3.org/1999/xlink">
    <title>banner-icon2</title>
    <g id="产品页" stroke="none" stroke-width="1" fill="none" fill-rule="evenodd">
        <g id="anyrec-free-online-converter-模版" transform="translate(-1122.000000, -1532.000000)">
            <g id="编组-3备份" transform="translate(944.000000, 1046.000000)">
                <g id="编组-19" transform="translate(178.000000, 482.000000)">
                    <g id="banner-icon2" transform="translate(0.000000, 4.000000)">
                        <rect id="矩形" x="0" y="0" width="16" height="16"></rect>
                        <g id="编组-50" transform="translate(2.000000, 0.000000)" stroke="#41B700">
                            <path d="M6.47262912,0.688596343 C7.96530796,1.47480312 8.91860353,1.94085021 9.58752372,2.14599995 C10.1789002,2.32736797 10.989053,2.44250699 12.0196707,2.48308299 C12.1538121,2.48836652 12.2738952,2.54614878 12.3604427,2.63617165 C12.4469885,2.72619269 12.5,2.84845336 12.5,2.98269626 L12.5,2.98269626 L12.5,9.71838038 C12.4999995,10.4871827 12.2468662,11.2345972 11.7796981,11.8451797 C11.1923044,12.6128956 10.6619183,13.1851038 10.1831561,13.5561242 C9.50968107,14.0780389 8.29840827,14.7070983 6.55557314,15.4531979 C4.8233059,14.6530946 3.58376241,13.9729003 2.84129889,13.4059642 C2.3539567,13.0338356 1.84554575,12.5278049 1.3134941,11.8906587 C0.787912089,11.2612466 0.5,10.4672798 0.5,9.64728203 L0.5,9.64728203 L0.5,2.98793035 C0.500004102,2.85370056 0.553006317,2.73144858 0.639538978,2.64142852 C0.726068536,2.5514117 0.846126711,2.49362465 0.980247132,2.48832181 C1.92593708,2.45093122 2.70398476,2.33456025 3.31567573,2.14572922 C3.96300073,1.94589786 4.83390034,1.53594917 5.92902687,0.906926918 C6.14304815,0.781743329 6.31900747,0.708079856 6.47262912,0.688596343 Z" id="矩形"></path>
                            <polyline id="路径-8" stroke-linecap="round" stroke-linejoin="round" points="4.04643969 8 6.01832126 9.98759003 10.0304659 5.97708499"></polyline>
                        </g>
                    </g>
                </g>
            </g>
        </g>
    </g>
</svg>