<svg xmlns="http://www.w3.org/2000/svg" xmlns:xlink="http://www.w3.org/1999/xlink" width="154" height="33" viewBox="0 0 154 33" fill="none"><defs><rect id="path_0" x="0" y="0" width="154" height="33" /><linearGradient id="linear_0" x1="-1.8807692307692254%" y1="48.87388888888889%" x2="98.22153846153844%" y2="146.1922222222222%" gradientUnits="objectBoundingBox"><stop offset="0" stop-color="#FFBF5D" stop-opacity="1" /><stop offset="0.506138" stop-color="#FF3CF0" stop-opacity="1" /><stop offset="1" stop-color="#2BD5FF" stop-opacity="1" /></linearGradient><linearGradient id="linear_1" x1="-1.8807692307692254%" y1="48.87388888888889%" x2="98.22153846153844%" y2="146.1922222222222%" gradientUnits="objectBoundingBox"><stop offset="0" stop-color="#FFBF5D" stop-opacity="1" /><stop offset="0.506138" stop-color="#FF3CF0" stop-opacity="1" /><stop offset="1" stop-color="#2BD5FF" stop-opacity="1" /></linearGradient></defs><g opacity="1" transform="translate(0 0)  rotate(0 77 16.5)"><mask id="bg-mask" fill="white"><use xlink:href="#path_0"></use></mask><g mask="url(#bg-mask)" ><path id="分组 1" fill-rule="evenodd" fill="url(#linear_0)" transform="translate(12.5 8.5)  rotate(0 65 9)" opacity="1" d="M130 0L130 14.27L127.69 14.27L127.69 12.94C126.88 13.92 125.68 14.4 124.28 14.4C121.29 14.4 119.07 12.33 119.07 9.13C119.07 5.94 121.29 3.88 124.28 3.88C125.6 3.88 126.78 4.33 127.59 5.27L127.59 0L130 0Z M32.4085 0.61539C34.0185 0.61539 35.7185 1.03539 36.8985 1.80539L36.1085 3.74539C34.8885 3.03539 33.5585 2.69539 32.3885 2.69539C30.2985 2.69539 29.4585 3.49539 29.4585 4.51539C29.4585 7.38539 37.4585 5.51539 37.4585 10.4654C37.4585 12.6154 35.6985 14.4654 31.9985 14.4654C29.8985 14.4654 27.7985 13.8054 26.6785 12.8454L27.5485 10.9054C28.6285 11.7654 30.3385 12.3854 31.9985 12.3854C34.0985 12.3854 34.9885 11.6354 34.9885 10.6354C34.9885 7.73539 26.9685 9.63539 26.9685 4.63539C26.9685 2.46539 28.6985 0.61539 32.4085 0.61539Z M10.66 11.1577L3.91 11.1577L2.58 14.2677L0 14.2677L6.07 0.80769L8.54 0.80769L14.63 14.2677L12.01 14.2677L10.66 11.1577Z M16.3464 0.80769L18.8564 0.80769L18.8564 14.2677L16.3464 14.2677L16.3464 0.80769Z M106.294 13.7108C105.714 14.1708 104.844 14.4008 103.974 14.4008C101.724 14.4008 100.434 13.2108 100.434 10.9408L100.434 6.0008L98.734 6.0008L98.734 4.0808L100.434 4.0808L100.434 1.7308L102.844 1.7308L102.844 4.0808L105.594 4.0808L105.594 6.0008L102.844 6.0008L102.844 10.8808C102.844 11.8808 103.344 12.4208 104.264 12.4208C104.764 12.4208 105.254 12.2908 105.614 12.0008L106.294 13.7108Z M4.7613 9.1877L7.2913 3.3077L9.8313 9.1877L4.7613 9.1877Z M55.1266 4.0046L55.1266 5.3446C55.9366 4.3646 57.1366 3.8846 58.5466 3.8846C61.5466 3.8846 63.7666 5.9646 63.7666 9.1346C63.7666 12.3246 61.5466 14.4046 58.5466 14.4046C57.2266 14.4046 56.0766 13.9646 55.2466 13.0146L55.2466 18.0046L52.8366 18.0046L52.8366 4.0046L55.1266 4.0046Z M66.0602 4.0046L68.3502 4.0046L68.3502 5.3446C69.1602 4.3646 70.3602 3.8846 71.7702 3.8846C74.7702 3.8846 76.9902 5.9646 76.9902 9.1346C76.9902 12.3246 74.7702 14.4046 71.7702 14.4046C70.4602 14.4046 69.3002 13.9646 68.4702 13.0146L68.4702 18.0046L66.0602 18.0046L66.0602 4.0046Z M83.9056 3.8846C87.1056 3.8846 89.4056 6.0546 89.4056 9.1346C89.4056 12.2146 87.1056 14.4046 83.9056 14.4046C80.7456 14.4046 78.4356 12.2146 78.4356 9.1346C78.4356 6.0546 80.7456 3.8846 83.9056 3.8846Z M97.677 6.1746C97.457 6.1346 97.287 6.1146 97.117 6.1146C95.287 6.1146 94.127 7.1946 94.127 9.2846L94.127 14.2646L91.717 14.2646L91.717 4.0046L94.007 4.0046L94.007 5.5046C94.707 4.4246 95.957 3.8846 97.677 3.8846L97.677 6.1746Z M116.91 12.7346C115.99 13.8246 114.54 14.4046 112.77 14.4046C109.32 14.4046 107.08 12.1946 107.08 9.1346C107.08 6.0746 109.34 3.8846 112.4 3.8846C115.41 3.8846 117.6 5.9846 117.6 9.1946C117.6 9.3846 117.59 9.6746 117.57 9.9046L109.49 9.9046C109.78 11.4046 111.03 12.3646 112.83 12.3646C113.98 12.3646 114.89 12.0046 115.62 11.2546L116.91 12.7346Z M44.0623 14.4C41.4223 14.4 39.6323 12.96 39.6323 9.87L39.6323 4L42.0423 4L42.0423 9.54C42.0423 11.4 42.9323 12.29 44.4523 12.29C46.1323 12.29 47.2623 11.25 47.2623 9.19L47.2623 4L49.6723 4L49.6723 14.27L47.3823 14.27L47.3823 12.96C46.6123 13.9 45.3923 14.4 44.0623 14.4Z M109.471 8.3077C109.701 6.8077 110.841 5.8077 112.401 5.8077C113.981 5.8077 115.121 6.8277 115.311 8.3077L109.471 8.3077Z M58.2676 5.9231C60.0076 5.9231 61.3176 7.1731 61.3176 9.1331C61.3176 11.0931 60.0076 12.3431 58.2676 12.3431C56.5376 12.3431 55.2076 11.0931 55.2076 9.1331C55.2076 7.1731 56.5376 5.9231 58.2676 5.9231Z M71.4912 5.9231C73.2312 5.9231 74.5412 7.1731 74.5412 9.1331C74.5412 11.0931 73.2312 12.3431 71.4912 12.3431C69.7612 12.3431 68.4312 11.0931 68.4312 9.1331C68.4312 7.1731 69.7612 5.9231 71.4912 5.9231Z M83.9145 5.9231C85.6645 5.9231 86.9745 7.1731 86.9745 9.1331C86.9745 11.0931 85.6645 12.3431 83.9145 12.3431C82.1745 12.3431 80.8645 11.0931 80.8645 9.1331C80.8645 7.1731 82.1745 5.9231 83.9145 5.9231Z M124.559 5.9231C126.299 5.9231 127.629 7.1731 127.629 9.1331C127.629 11.0931 126.299 12.3431 124.559 12.3431C122.829 12.3431 121.499 11.0931 121.499 9.1331C121.499 7.1731 122.829 5.9231 124.559 5.9231Z " /><path id="路径 18 (轮廓)" fill-rule="evenodd" fill="url(#linear_1)" transform="translate(0 0)  rotate(0 77 16.5)" opacity="1" d="M16.5 33C7.39 33 0 25.61 0 16.5C0 7.39 7.39 0 16.5 0L137.5 0C146.61 0 154 7.39 154 16.5C154 25.61 146.61 33 137.5 33L16.5 33ZM148.46 5.54C145.43 2.51 141.78 1 137.5 1L16.5 1C12.22 1 8.57 2.51 5.54 5.54C2.51 8.57 1 12.22 1 16.5C1 20.78 2.51 24.43 5.54 27.46C8.57 30.49 12.22 32 16.5 32L137.5 32C141.78 32 145.43 30.49 148.46 27.46C151.49 24.43 153 20.78 153 16.5C153 12.22 151.49 8.57 148.46 5.54Z" /></g></g></svg>